<svg xmlns="http://www.w3.org/2000/svg" xmlns:xlink="http://www.w3.org/1999/xlink" width="128" zoomAndPan="magnify" viewBox="0 0 96 95.999999" height="128" preserveAspectRatio="xMidYMid meet" version="1.0"><defs><g/><clipPath id="6531acc7f1"><path d="M 0.636719 1.085938 L 93.777344 1.085938 L 93.777344 93.867188 L 0.636719 93.867188 Z M 0.636719 1.085938 " clip-rule="nonzero"/></clipPath><clipPath id="cd316d61ff"><path d="M 61.320312 1.085938 L 32.949219 1.085938 C 15.101562 1.085938 0.636719 15.21875 0.636719 38.859375 C 0.636719 56.679688 8.21875 67.5625 19.175781 72.613281 L 19.175781 93.867188 L 41.121094 75.621094 L 61.320312 75.621094 C 79.167969 75.621094 93.632812 61.488281 93.632812 38.859375 C 93.632812 15.21875 79.167969 1.085938 61.320312 1.085938 Z M 61.320312 1.085938 " clip-rule="nonzero"/></clipPath><clipPath id="2b7bca1977"><path d="M 0.636719 0.0859375 L 93.777344 0.0859375 L 93.777344 92.867188 L 0.636719 92.867188 Z M 0.636719 0.0859375 " clip-rule="nonzero"/></clipPath><clipPath id="c8988b9439"><path d="M 61.320312 0.0859375 L 32.949219 0.0859375 C 15.101562 0.0859375 0.636719 14.21875 0.636719 37.859375 C 0.636719 55.679688 8.21875 66.5625 19.175781 71.613281 L 19.175781 92.867188 L 41.121094 74.621094 L 61.320312 74.621094 C 79.167969 74.621094 93.632812 60.488281 93.632812 37.859375 C 93.632812 14.21875 79.167969 0.0859375 61.320312 0.0859375 Z M 61.320312 0.0859375 " clip-rule="nonzero"/></clipPath><clipPath id="021579fb69"><rect x="0" width="94" y="0" height="93"/></clipPath><clipPath id="8ac3e940e9"><path d="M 5 14 L 38.558594 14 L 38.558594 55 L 5 55 Z M 5 14 " clip-rule="nonzero"/></clipPath><clipPath id="8ba7a165e6"><rect x="0" width="39" y="0" height="73"/></clipPath><clipPath id="dbba26245c"><path d="M 62.382812 25 L 82 25 L 82 45.5 L 62.382812 45.5 Z M 62.382812 25 " clip-rule="nonzero"/></clipPath><clipPath id="17444be321"><path d="M 72 18.359375 L 80 18.359375 L 80 26 L 72 26 Z M 72 18.359375 " clip-rule="nonzero"/></clipPath><clipPath id="70b1db3275"><path d="M 79 23 L 88.648438 23 L 88.648438 33 L 79 33 Z M 79 23 " clip-rule="nonzero"/></clipPath><clipPath id="96b0b0ad54"><path d="M 17.019531 6 L 69.546875 6 L 69.546875 19 L 17.019531 19 Z M 17.019531 6 " clip-rule="nonzero"/></clipPath><clipPath id="564fb69f51"><rect x="0" width="94" y="0" height="95"/></clipPath></defs><g transform="matrix(1, 0, 0, 1, 1, -0.000000000000008105)"><g clip-path="url(#564fb69f51)"><g clip-path="url(#6531acc7f1)"><g clip-path="url(#cd316d61ff)"><g transform="matrix(1, 0, 0, 1, 0.000000000000000111, 1)"><g clip-path="url(#021579fb69)"><g clip-path="url(#2b7bca1977)"><g clip-path="url(#c8988b9439)"><path fill="#a435f0" d="M 0.636719 0.0859375 L 93.777344 0.0859375 L 93.777344 92.867188 L 0.636719 92.867188 Z M 0.636719 0.0859375 " fill-opacity="1" fill-rule="nonzero"/></g></g></g></g></g></g><g transform="matrix(1, 0, 0, 1, 19, 9)"><g clip-path="url(#8ba7a165e6)"><g clip-path="url(#8ac3e940e9)"><g fill="#ffffff" fill-opacity="1"><g transform="translate(1.151061, 54.198168)"><g><path d="M 4.628906 -15.371094 C 4.628906 -5.636719 10.03125 0.710938 20.769531 0.710938 C 31.511719 0.710938 36.914062 -5.578125 36.914062 -15.429688 L 36.914062 -39.582031 L 31.988281 -39.582031 L 31.988281 -15.488281 C 31.988281 -8.25 28.070312 -3.679688 20.769531 -3.679688 C 13.472656 -3.679688 9.554688 -8.25 9.554688 -15.488281 L 9.554688 -39.582031 L 4.628906 -39.582031 Z M 4.628906 -15.371094 "/></g></g></g></g></g></g><g clip-path="url(#dbba26245c)"><path fill="#ffffff" d="M 81.78125 35.289062 C 81.761719 35.273438 81.738281 35.257812 81.714844 35.246094 L 81.695312 35.234375 C 81.691406 35.234375 81.683594 35.230469 81.675781 35.226562 L 81.660156 35.21875 C 81.652344 35.21875 81.648438 35.21875 81.644531 35.214844 C 80.097656 34.703125 78.554688 34.167969 77.027344 33.601562 C 75.867188 33.171875 74.902344 32.246094 74.441406 31.097656 C 74.40625 31.011719 74.375 30.925781 74.34375 30.835938 C 73.949219 29.65625 73.4375 28.089844 73.042969 26.90625 C 73 26.769531 72.867188 26.382812 72.828125 26.257812 C 72.828125 26.257812 72.808594 26.207031 72.808594 26.207031 C 72.769531 26.074219 72.679688 25.957031 72.558594 25.886719 C 72.363281 25.769531 72.101562 25.789062 71.929688 25.9375 C 71.863281 25.992188 71.808594 26.0625 71.773438 26.140625 C 71.613281 26.542969 71.453125 26.949219 71.296875 27.355469 C 70.867188 28.464844 70.425781 29.632812 70.007812 30.746094 C 69.8125 31.273438 69.511719 31.761719 69.132812 32.175781 C 68.707031 32.640625 68.179688 33.015625 67.597656 33.257812 C 67.457031 33.320312 67.128906 33.441406 66.976562 33.5 C 65.722656 33.976562 64.09375 34.59375 62.847656 35.074219 C 62.496094 35.214844 62.390625 35.664062 62.632812 35.949219 C 62.699219 36.027344 62.785156 36.082031 62.878906 36.113281 C 64.40625 36.660156 65.96875 37.191406 67.5 37.71875 C 67.777344 37.8125 68.042969 37.933594 68.296875 38.082031 C 69.0625 38.523438 69.6875 39.199219 70.074219 39.992188 C 70.128906 40.109375 70.179688 40.230469 70.226562 40.347656 C 70.796875 41.847656 71.351562 43.363281 71.878906 44.878906 C 71.890625 44.910156 71.90625 44.960938 71.921875 44.996094 C 72.015625 45.210938 72.277344 45.292969 72.484375 45.1875 C 72.554688 45.152344 72.613281 45.09375 72.652344 45.027344 L 72.664062 45.007812 C 72.667969 45.003906 72.667969 44.996094 72.671875 44.988281 L 72.679688 44.972656 L 72.691406 44.945312 C 73.289062 43.441406 73.914062 41.917969 74.5 40.410156 C 74.601562 40.144531 74.730469 39.890625 74.882812 39.648438 C 75.261719 39.046875 75.78125 38.535156 76.390625 38.167969 C 76.585938 38.046875 76.792969 37.945312 77.007812 37.855469 C 78.457031 37.300781 79.933594 36.703125 81.371094 36.109375 L 81.582031 36.023438 L 81.632812 36 L 81.660156 35.988281 C 81.726562 35.964844 81.785156 35.921875 81.832031 35.867188 C 81.976562 35.699219 81.953125 35.429688 81.78125 35.289062 Z M 81.78125 35.289062 " fill-opacity="1" fill-rule="nonzero"/></g><g clip-path="url(#17444be321)"><path fill="#ffffff" d="M 72.210938 22.34375 C 72.238281 22.363281 72.265625 22.378906 72.292969 22.386719 C 72.730469 22.535156 73.167969 22.679688 73.605469 22.820312 C 73.8125 22.890625 74.007812 22.980469 74.191406 23.097656 C 74.601562 23.363281 74.933594 23.753906 75.128906 24.203125 C 75.195312 24.355469 75.246094 24.515625 75.304688 24.671875 C 75.417969 24.996094 75.527344 25.324219 75.632812 25.652344 C 75.644531 25.683594 75.660156 25.710938 75.683594 25.734375 C 75.777344 25.820312 75.9375 25.796875 75.996094 25.683594 C 76.183594 25.25 76.367188 24.8125 76.542969 24.375 C 76.796875 23.742188 77.292969 23.210938 77.910156 22.914062 C 77.945312 22.898438 77.980469 22.878906 78.015625 22.863281 C 78.25 22.765625 78.734375 22.554688 78.976562 22.449219 L 79.285156 22.316406 C 79.296875 22.308594 79.316406 22.300781 79.328125 22.296875 C 79.433594 22.246094 79.449219 22.097656 79.355469 22.027344 C 79.339844 22.015625 79.324219 22.007812 79.304688 22 C 78.867188 21.859375 78.429688 21.710938 78 21.550781 C 77.324219 21.304688 76.78125 20.75 76.539062 20.074219 C 76.523438 20.023438 76.503906 19.972656 76.488281 19.921875 C 76.355469 19.480469 76.21875 19.023438 76.070312 18.589844 C 75.964844 18.359375 75.640625 18.375 75.550781 18.609375 C 75.425781 18.921875 75.292969 19.269531 75.167969 19.589844 C 75.09375 19.78125 75.019531 20 74.921875 20.183594 C 74.644531 20.722656 74.167969 21.160156 73.601562 21.386719 C 73.21875 21.535156 72.667969 21.746094 72.289062 21.898438 C 72.246094 21.914062 72.210938 21.9375 72.183594 21.96875 C 72.085938 22.078125 72.097656 22.253906 72.210938 22.34375 Z M 72.210938 22.34375 " fill-opacity="1" fill-rule="nonzero"/></g><g clip-path="url(#70b1db3275)"><path fill="#ffffff" d="M 88.664062 28.167969 C 88.109375 27.996094 87.558594 27.8125 87.011719 27.609375 C 86.175781 27.300781 85.5 26.601562 85.21875 25.757812 C 85.171875 25.625 85.085938 25.304688 85.042969 25.164062 C 84.921875 24.75 84.800781 24.339844 84.667969 23.933594 C 84.664062 23.921875 84.660156 23.90625 84.652344 23.890625 C 84.5 23.550781 84.015625 23.574219 83.886719 23.921875 C 83.671875 24.457031 83.460938 24.992188 83.257812 25.53125 C 83.214844 25.648438 83.160156 25.761719 83.101562 25.875 C 82.8125 26.4375 82.351562 26.910156 81.792969 27.207031 C 81.710938 27.253906 81.621094 27.296875 81.535156 27.332031 C 81.46875 27.359375 81.132812 27.492188 81.054688 27.523438 C 80.753906 27.640625 80.109375 27.894531 79.820312 28.011719 C 79.679688 28.074219 79.589844 28.230469 79.605469 28.386719 C 79.613281 28.535156 79.71875 28.667969 79.859375 28.714844 C 80.40625 28.894531 80.957031 29.066406 81.507812 29.238281 C 81.761719 29.320312 82.007812 29.429688 82.234375 29.574219 C 82.75 29.894531 83.164062 30.378906 83.40625 30.9375 C 83.425781 30.984375 83.445312 31.035156 83.460938 31.082031 C 83.660156 31.621094 83.839844 32.167969 84.011719 32.71875 C 84.015625 32.730469 84.023438 32.75 84.027344 32.765625 C 84.101562 32.964844 84.367188 33.007812 84.507812 32.847656 C 84.53125 32.820312 84.546875 32.789062 84.558594 32.757812 L 84.582031 32.707031 C 84.804688 32.195312 85.03125 31.683594 85.242188 31.167969 C 85.292969 31.046875 85.347656 30.929688 85.410156 30.820312 C 85.472656 30.707031 85.539062 30.597656 85.613281 30.492188 C 85.972656 29.976562 86.476562 29.5625 87.050781 29.304688 C 87.570312 29.074219 88.128906 28.816406 88.648438 28.582031 L 88.660156 28.578125 L 88.667969 28.574219 C 88.699219 28.558594 88.726562 28.539062 88.75 28.511719 C 88.847656 28.398438 88.804688 28.21875 88.664062 28.167969 Z M 88.664062 28.167969 " fill-opacity="1" fill-rule="nonzero"/></g><g clip-path="url(#96b0b0ad54)"><path fill="#ffffff" d="M 68.71875 17.53125 C 61.316406 13.238281 52.179688 10.636719 42.738281 10.636719 C 36.363281 10.636719 29.363281 11.964844 22.917969 14.6875 C 21.957031 15.125 21.136719 14.058594 22.082031 13.359375 C 27.824219 9.113281 36.171875 6.863281 43.347656 6.863281 C 53.40625 6.863281 62.46875 10.582031 69.3125 16.765625 C 69.855469 17.253906 69.367188 17.917969 68.71875 17.53125 Z M 17.246094 17.96875 C 16.617188 17.183594 17.417969 11.789062 20.492188 9.203125 C 20.964844 8.800781 21.417969 9.011719 21.207031 9.535156 L 20.824219 10.496094 C 20.074219 12.421875 19.070312 15.304688 19.6875 16.085938 C 20.421875 17.023438 24.542969 16.539062 26.414062 16.308594 C 26.96875 16.238281 27.058594 16.730469 26.550781 17.097656 C 23.269531 19.402344 17.871094 18.738281 17.246094 17.96875 Z M 17.246094 17.96875 " fill-opacity="1" fill-rule="evenodd"/></g></g></g></svg>